<svg width="18" height="18" viewBox="0 0 18 18" fill="none" xmlns="http://www.w3.org/2000/svg">
<path fill-rule="evenodd" clip-rule="evenodd" d="M10.789 11.5845C8.80134 13.1765 5.89177 13.0512 4.04918 11.2086C2.07215 9.2316 2.07215 6.02621 4.04918 4.04918C6.02621 2.07215 9.2316 2.07215 11.2086 4.04918C13.0512 5.89176 13.1765 8.80133 11.5845 10.789L15.4513 14.6558C15.6709 14.8754 15.6709 15.2316 15.4513 15.4513C15.2316 15.6709 14.8754 15.6709 14.6558 15.4513L10.789 11.5845ZM4.84467 10.4131C3.30698 8.87545 3.30698 6.38236 4.84467 4.84467C6.38236 3.30698 8.87545 3.30698 10.4131 4.84467C11.9497 6.38123 11.9508 8.87179 10.4165 10.4098C10.4154 10.4109 10.4143 10.412 10.4131 10.4131C10.412 10.4142 10.4109 10.4154 10.4098 10.4165C8.8718 11.9508 6.38124 11.9497 4.84467 10.4131Z" fill="#6D6D6D"/>
</svg>
