<svg width="20" height="20" viewBox="0 0 20 20" fill="none" xmlns="http://www.w3.org/2000/svg">
<g clip-path="url(#clip0_1_256)">
<path d="M10 8.18179V12.0545H15.3818C15.1455 13.3 14.4363 14.3546 13.3727 15.0636L16.6181 17.5818C18.509 15.8365 19.5999 13.2728 19.5999 10.2273C19.5999 9.51827 19.5363 8.83639 19.4181 8.1819L10 8.18179Z" fill="#4285F4"/>
<path d="M4.39568 11.9034L3.66371 12.4637L1.07275 14.4818C2.7182 17.7454 6.09068 20 9.99974 20C12.6997 20 14.9633 19.1091 16.6179 17.5819L13.3724 15.0636C12.4815 15.6636 11.3451 16.0273 9.99974 16.0273C7.39976 16.0273 5.19073 14.2728 4.39976 11.9091L4.39568 11.9034Z" fill="#34A853"/>
<path d="M1.07265 5.51819C0.390868 6.86359 0 8.38179 0 9.99994C0 11.6181 0.390868 13.1363 1.07265 14.4817C1.07265 14.4907 4.39998 11.8999 4.39998 11.8999C4.19998 11.2999 4.08177 10.6636 4.08177 9.99984C4.08177 9.33612 4.19998 8.69979 4.39998 8.0998L1.07265 5.51819Z" fill="#FBBC05"/>
<path d="M9.99995 3.98182C11.4727 3.98182 12.7818 4.49089 13.8272 5.47272L16.6908 2.60912C14.9545 0.990971 12.7 0 9.99995 0C6.09089 0 2.7182 2.24545 1.07275 5.51819L4.39998 8.10001C5.19084 5.73635 7.39996 3.98182 9.99995 3.98182Z" fill="#EA4335"/>
</g>
<defs>
<clipPath id="clip0_1_256">
<rect width="20" height="20" fill="white"/>
</clipPath>
</defs>
</svg>
