<svg width="99" height="100" viewBox="0 0 99 100" fill="none" xmlns="http://www.w3.org/2000/svg">
<rect y="1" width="99" height="99" fill="#F3F3F3"/>
<line x1="0.353553" y1="0.646447" x2="98.3535" y2="98.6464" stroke="#DFDFDF"/>
<line y1="-0.5" x2="138.593" y2="-0.5" transform="matrix(-0.707107 0.707107 0.707107 0.707107 99 2)" stroke="#DFDFDF"/>
<path d="M32.7148 55V48.6367H34.2148V55H32.7148ZM33.4766 47.7344C33.0078 47.7344 32.6094 47.3711 32.6094 46.9141C32.6094 46.4688 33.0078 46.1055 33.4766 46.1055C33.957 46.1055 34.3438 46.4688 34.3438 46.9141C34.3438 47.3711 33.957 47.7344 33.4766 47.7344ZM35.6445 55V48.6367H37.0742V49.7148H37.1562C37.4141 48.9883 38.0586 48.5547 38.9023 48.5547C39.7695 48.5547 40.3789 48.9883 40.625 49.7148H40.6953C40.9766 49.0117 41.6797 48.5547 42.6055 48.5547C43.7656 48.5547 44.5859 49.3047 44.5859 50.7227V55H43.0977V50.957C43.0977 50.1602 42.6172 49.8086 42.0078 49.8086C41.2695 49.8086 40.8477 50.3125 40.8477 51.0273V55H39.3945V50.8984C39.3945 50.2422 38.9492 49.8086 38.3164 49.8086C37.6719 49.8086 37.1445 50.3359 37.1445 51.1328V55H35.6445ZM45.7227 53.207C45.7227 51.7773 46.9062 51.3555 48.0898 51.2852C48.5293 51.2559 49.4434 51.2031 49.7188 51.1914V50.6875C49.7188 50.0547 49.3086 49.6914 48.5703 49.6914C47.9023 49.6914 47.4922 49.9961 47.375 50.4531H45.9336C46.0391 49.375 47.0117 48.5547 48.6055 48.5547C49.8125 48.5547 51.207 49.0469 51.207 50.7461V55H49.7773V54.1211H49.7305C49.4492 54.6602 48.8516 55.1289 47.8555 55.1289C46.6367 55.1289 45.7227 54.4609 45.7227 53.207ZM47.1641 53.1953C47.1641 53.7461 47.6094 54.0273 48.2422 54.0273C49.1445 54.0273 49.7305 53.4297 49.7305 52.7148V52.1875L48.3242 52.2812C47.6094 52.3398 47.1641 52.6328 47.1641 53.1953ZM55.3906 57.5195C53.7031 57.5195 52.6367 56.7695 52.5312 55.5742H54.0195C54.125 56.125 54.6523 56.3945 55.4141 56.3945C56.3047 56.3945 56.8906 56.0078 56.8906 55.0703V53.8516H56.8203C56.5859 54.3203 56.082 54.9062 54.9805 54.9062C53.5156 54.9062 52.3555 53.8398 52.3555 51.7656C52.3555 49.668 53.5156 48.5547 54.9922 48.5547C56.1172 48.5547 56.5859 49.2227 56.8203 49.6797H56.8906V48.6367H58.3672V55.1055C58.3672 56.7344 57.1133 57.5195 55.3906 57.5195ZM55.3906 53.7344C56.3516 53.7344 56.9023 53.0078 56.9023 51.7891C56.9023 50.582 56.3633 49.7734 55.3906 49.7734C54.3945 49.7734 53.8789 50.6289 53.8789 51.7891C53.8789 52.9609 54.4062 53.7344 55.3906 53.7344ZM62.6211 55.1289C60.6992 55.1289 59.5273 53.8516 59.5273 51.8594C59.5273 49.8906 60.7227 48.5547 62.5391 48.5547C64.0977 48.5547 65.4453 49.5273 65.4453 51.7656V52.2344H61.0039C61.0215 53.3184 61.6602 53.957 62.6328 53.957C63.2891 53.957 63.7344 53.6758 63.9219 53.3008H65.3867C65.1172 54.4023 64.0977 55.1289 62.6211 55.1289ZM61.0156 51.2148H64.0156C64.0039 50.3477 63.4297 49.7148 62.5625 49.7148C61.6602 49.7148 61.0625 50.4004 61.0156 51.2148Z" fill="#BFBFBF"/>
</svg>
