<svg width="99" height="99" viewBox="0 0 99 99" fill="none" xmlns="http://www.w3.org/2000/svg">
<rect x="0.5" y="0.5" width="98" height="98" fill="white" stroke="#C2C2C2"/>
<path d="M48.1016 42.4404H45.2744V41.2539H48.1016V38.4268H49.2881V41.2539H52.1299V42.4404H49.2881V45.2822H48.1016V42.4404Z" fill="#C2C2C2"/>
<path d="M41.9785 64.0977C41.4577 64.0977 41.0117 63.9561 40.6406 63.6729C40.2728 63.3896 39.9912 62.9762 39.7959 62.4326C39.6038 61.889 39.5078 61.2331 39.5078 60.4648C39.5078 59.7064 39.6055 59.0553 39.8008 58.5117C39.9961 57.9648 40.2793 57.5482 40.6504 57.2617C41.0215 56.9753 41.4642 56.832 41.9785 56.832C42.4928 56.832 42.9355 56.9753 43.3066 57.2617C43.6777 57.5482 43.9609 57.9648 44.1562 58.5117C44.3516 59.0553 44.4492 59.7064 44.4492 60.4648C44.4492 61.2331 44.3516 61.889 44.1562 62.4326C43.9642 62.9762 43.6826 63.3896 43.3115 63.6729C42.9404 63.9561 42.4961 64.0977 41.9785 64.0977ZM41.9785 63.3164C42.3171 63.3164 42.6068 63.2057 42.8477 62.9844C43.0885 62.763 43.2725 62.4391 43.3994 62.0127C43.5264 61.5863 43.5898 61.0703 43.5898 60.4648C43.5898 59.8594 43.5264 59.3418 43.3994 58.9121C43.2725 58.4824 43.0885 58.1553 42.8477 57.9307C42.6068 57.7061 42.3171 57.5938 41.9785 57.5938C41.64 57.5938 41.3486 57.7061 41.1045 57.9307C40.8636 58.1553 40.6781 58.4824 40.5479 58.9121C40.4209 59.3418 40.3574 59.8594 40.3574 60.4648C40.3574 61.0703 40.4209 61.5863 40.5479 62.0127C40.6748 62.4391 40.8587 62.763 41.0996 62.9844C41.3438 63.2057 41.6367 63.3164 41.9785 63.3164ZM45.8652 65.0645H45.1035L47.3789 56.5977H48.1504L45.8652 65.0645ZM51.4609 64H50.5723V57.8477H50.5332L48.8145 58.9902V58.1016L50.5723 56.9297H51.4609V64ZM55.6602 64.0977C55.1393 64.0977 54.6934 63.9561 54.3223 63.6729C53.9544 63.3896 53.6729 62.9762 53.4775 62.4326C53.2855 61.889 53.1895 61.2331 53.1895 60.4648C53.1895 59.7064 53.2871 59.0553 53.4824 58.5117C53.6777 57.9648 53.9609 57.5482 54.332 57.2617C54.7031 56.9753 55.1458 56.832 55.6602 56.832C56.1745 56.832 56.6172 56.9753 56.9883 57.2617C57.3594 57.5482 57.6426 57.9648 57.8379 58.5117C58.0332 59.0553 58.1309 59.7064 58.1309 60.4648C58.1309 61.2331 58.0332 61.889 57.8379 62.4326C57.6458 62.9762 57.3643 63.3896 56.9932 63.6729C56.6221 63.9561 56.1777 64.0977 55.6602 64.0977ZM55.6602 63.3164C55.9987 63.3164 56.2884 63.2057 56.5293 62.9844C56.7702 62.763 56.9541 62.4391 57.0811 62.0127C57.208 61.5863 57.2715 61.0703 57.2715 60.4648C57.2715 59.8594 57.208 59.3418 57.0811 58.9121C56.9541 58.4824 56.7702 58.1553 56.5293 57.9307C56.2884 57.7061 55.9987 57.5938 55.6602 57.5938C55.3216 57.5938 55.0303 57.7061 54.7861 57.9307C54.5452 58.1553 54.3597 58.4824 54.2295 58.9121C54.1025 59.3418 54.0391 59.8594 54.0391 60.4648C54.0391 61.0703 54.1025 61.5863 54.2295 62.0127C54.3564 62.4391 54.5404 62.763 54.7812 62.9844C55.0254 63.2057 55.3184 63.3164 55.6602 63.3164Z" fill="#C2C2C2"/>
</svg>
